<svg width="40" height="40" viewBox="0 0 40 40" fill="none" xmlns="http://www.w3.org/2000/svg">
<path d="M25 23.3334V18.3334H30V15.0001L36.6666 20.8334L30 26.6667V23.3334H25ZM23.3333 12.8334V15.0001H3.33331V12.8334L13.3333 6.66675L23.3333 12.8334ZM11.6666 16.6667H15V25.0001H11.6666V16.6667ZM4.99998 16.6667H8.33331V25.0001H4.99998V16.6667ZM21.6666 16.6667V20.8334L18.3333 23.8334V16.6667H21.6666ZM15.1666 26.6667L14.1666 27.5001L17 30.0001H3.33331V26.6667H15.1666ZM28.3333 25.0001V30.0001H23.3333V33.3334L16.6666 27.5001L23.3333 21.6667V25.0001H28.3333Z" fill="#024E1A"/>
</svg>
