<svg width="53" height="54" viewBox="0 0 53 54" fill="none" xmlns="http://www.w3.org/2000/svg">
<path d="M51.307 43.2809C51.307 43.7127 51.1355 44.1268 50.8301 44.4321C50.5248 44.7374 50.1107 44.909 49.6789 44.909H4.09244C3.66065 44.909 3.24654 44.7374 2.94121 44.4321C2.63589 44.1268 2.46436 43.7127 2.46436 43.2809C2.46436 42.8491 2.63589 42.435 2.94121 42.1296C3.24654 41.8243 3.66065 41.6528 4.09244 41.6528H49.6789C50.1107 41.6528 50.5248 41.8243 50.8301 42.1296C51.1355 42.435 51.307 42.8491 51.307 43.2809ZM4.1535 20.9313C4.05666 20.5899 4.07404 20.2261 4.20299 19.8955C4.33194 19.5649 4.5654 19.2854 4.86782 19.0997L26.033 6.075C26.2894 5.91731 26.5846 5.83383 26.8857 5.83383C27.1867 5.83383 27.4819 5.91731 27.7384 6.075L48.9035 19.0997C49.206 19.2852 49.4397 19.5644 49.5689 19.8949C49.698 20.2255 49.7157 20.5891 49.6192 20.9306C49.5226 21.2721 49.3172 21.5726 49.034 21.7866C48.7509 22.0005 48.4057 22.1161 48.0508 22.1157H43.1665V35.1404H46.4227C46.8545 35.1404 47.2686 35.312 47.574 35.6173C47.8793 35.9226 48.0508 36.3367 48.0508 36.7685C48.0508 37.2003 47.8793 37.6144 47.574 37.9198C47.2686 38.2251 46.8545 38.3966 46.4227 38.3966H7.34862C6.91682 38.3966 6.50271 38.2251 6.19739 37.9198C5.89206 37.6144 5.72053 37.2003 5.72053 36.7685C5.72053 36.3367 5.89206 35.9226 6.19739 35.6173C6.50271 35.312 6.91682 35.1404 7.34862 35.1404H10.6048V22.1157H5.72053C5.36599 22.1159 5.0211 22.0002 4.73827 21.7865C4.45543 21.5727 4.25011 21.2724 4.1535 20.9313ZM30.1418 33.5123C30.1418 33.9441 30.3134 34.3583 30.6187 34.6636C30.924 34.9689 31.3381 35.1404 31.7699 35.1404C32.2017 35.1404 32.6158 34.9689 32.9212 34.6636C33.2265 34.3583 33.398 33.9441 33.398 33.5123V23.7438C33.398 23.312 33.2265 22.8979 32.9212 22.5926C32.6158 22.2873 32.2017 22.1157 31.7699 22.1157C31.3381 22.1157 30.924 22.2873 30.6187 22.5926C30.3134 22.8979 30.1418 23.312 30.1418 23.7438V33.5123ZM20.3733 33.5123C20.3733 33.9441 20.5449 34.3583 20.8502 34.6636C21.1555 34.9689 21.5696 35.1404 22.0014 35.1404C22.4332 35.1404 22.8473 34.9689 23.1526 34.6636C23.458 34.3583 23.6295 33.9441 23.6295 33.5123V23.7438C23.6295 23.312 23.458 22.8979 23.1526 22.5926C22.8473 22.2873 22.4332 22.1157 22.0014 22.1157C21.5696 22.1157 21.1555 22.2873 20.8502 22.5926C20.5449 22.8979 20.3733 23.312 20.3733 23.7438V33.5123Z" fill="#024E1A"/>
</svg>
