<svg width="40" height="40" viewBox="0 0 40 40" fill="none" xmlns="http://www.w3.org/2000/svg">
<path d="M23.7333 17.5999C23.2166 19.6666 20 18.6166 19 18.3333L19.9166 14.6999C20.95 14.9999 24.2666 15.4333 23.7333 17.5999ZM18.55 20.1999L17.55 24.2166C18.7833 24.5333 22.6 25.7499 23.1666 23.4833C23.7666 21.1166 19.7833 20.4999 18.55 20.1999ZM36.1666 24.0333C33.9333 32.9666 24.9 38.3999 15.9666 36.1666C7.03331 33.9333 1.60498 24.8999 3.83332 15.9666C4.36272 13.8434 5.3052 11.8453 6.60693 10.0864C7.90866 8.32756 9.54414 6.84233 11.42 5.71561C13.2958 4.58888 15.3752 3.84272 17.5394 3.51975C19.7036 3.19678 21.9103 3.30332 24.0333 3.83328C32.95 6.06661 38.3833 15.0999 36.1666 24.0333ZM23.6833 13.4166L24.4333 10.4166L22.6 9.99995L21.8666 12.8833C21.3833 12.7666 20.9 12.6499 20.4 12.5499L21.1333 9.59995L19.3166 9.16661L18.5666 12.1499C18.1666 12.0499 17.7666 11.9666 17.4 11.8666L14.8833 11.2333L14.3833 13.1833C14.3833 13.1833 15.75 13.4999 15.7166 13.5166C16.4666 13.6999 16.6 14.1666 16.5666 14.5833L14.5166 22.7999C14.4333 23.0333 14.1666 23.3333 13.6833 23.2499C13.7 23.2666 12.35 22.9166 12.35 22.9166L11.45 24.9999L13.8166 25.5999C14.2666 25.7166 14.7 25.8333 15.1333 25.9333L14.3666 28.9666L16.2 29.4333L16.95 26.4166C17.45 26.5499 17.9333 26.6666 18.4 26.7999L17.65 29.7833L19.4833 30.2499L20.25 27.2166C23.3333 27.7999 25.7 27.5666 26.6666 24.7499C27.5 22.4999 26.6666 21.1666 25 20.3166C26.2 19.9999 27.1 19.2499 27.35 17.6166C27.6833 15.3999 25.9833 14.2166 23.6833 13.4166Z" fill="#024E1A"/>
</svg>
