<svg width="184" height="184" viewBox="0 0 184 184" fill="none" xmlns="http://www.w3.org/2000/svg">
<rect width="184" height="184" rx="29" fill="white"/>
<path d="M167 40.75C167 34.9484 164.695 29.3844 160.593 25.282C156.491 21.1797 150.927 18.875 145.125 18.875H38.875C33.0835 18.9078 27.5386 21.223 23.4433 25.3183C19.348 29.4136 17.0328 34.9585 17 40.75V122C17.2072 128.007 19.3249 133.792 23.0454 138.513C26.7659 143.233 31.8952 146.645 37.6875 148.25C113.5 165.938 108.875 165.125 112.25 165.125C116.24 165.251 120.142 163.943 123.25 161.438C125.331 159.673 126.978 157.453 128.062 154.949C129.146 152.445 129.638 149.725 129.5 147V86.4375C129.501 80.6229 127.603 74.9671 124.094 70.3304C120.585 65.6936 115.658 62.3296 110.063 60.75L42.375 42C41.1732 41.6768 40.1491 40.8894 39.5279 39.811C38.9067 38.7327 38.7393 37.4518 39.0625 36.25C39.3857 35.0482 40.1731 34.0241 41.2515 33.4029C42.3298 32.7817 43.6107 32.6143 44.8125 32.9375C68.125 39.1875 66.8125 39.1875 67.125 39.1875H145.125C146.368 39.1875 147.56 39.6814 148.44 40.5604C149.319 41.4395 149.812 42.6318 149.812 43.875C149.812 45.1182 149.319 46.3105 148.44 47.1896C147.56 48.0686 146.368 48.5625 145.125 48.5625H112.375C112.002 48.5748 111.646 48.7201 111.37 48.9724C111.095 49.2246 110.92 49.5669 110.875 49.9375C110.815 50.3164 110.896 50.7042 111.104 51.027C111.311 51.3497 111.63 51.5848 112 51.6875C119.36 53.5732 125.927 57.7546 130.75 63.625C130.902 63.8076 131.093 63.9532 131.31 64.0506C131.527 64.1481 131.763 64.1949 132 64.1875H145.125C146.368 64.1875 147.56 64.6814 148.44 65.5604C149.319 66.4395 149.812 67.6318 149.812 68.875C149.812 70.1182 149.319 71.3105 148.44 72.1896C147.56 73.0686 146.368 73.5625 145.125 73.5625H138.875C138.626 73.5643 138.381 73.6281 138.163 73.7481C137.945 73.8682 137.76 74.0406 137.625 74.25C137.52 74.464 137.466 74.6992 137.466 74.9375C137.466 75.1758 137.52 75.411 137.625 75.625C138.772 79.115 139.363 82.7638 139.375 86.4375V129.812C139.375 130.227 139.54 130.624 139.833 130.917C140.126 131.21 140.523 131.375 140.937 131.375H145.625C151.34 131.244 156.776 128.882 160.771 124.794C164.766 120.706 167.001 115.216 167 109.5V40.75ZM113.875 112.625C113.875 115.097 113.142 117.514 111.768 119.57C110.395 121.625 108.443 123.227 106.159 124.173C103.874 125.12 101.361 125.367 98.9364 124.885C96.5116 124.403 94.2843 123.212 92.5362 121.464C90.788 119.716 89.5975 117.488 89.1152 115.064C88.6329 112.639 88.8804 110.126 89.8265 107.841C90.7726 105.557 92.3748 103.605 94.4304 102.232C96.486 100.858 98.9027 100.125 101.375 100.125C104.69 100.125 107.87 101.442 110.214 103.786C112.558 106.13 113.875 109.31 113.875 112.625Z" fill="#099235"/>
</svg>
