<svg width="150" height="150" viewBox="0 0 150 150" fill="none" xmlns="http://www.w3.org/2000/svg">
<path d="M150 23.75C150 17.9484 147.695 12.3844 143.593 8.28204C139.491 4.17968 133.927 1.875 128.125 1.875H21.875C16.0835 1.90781 10.5386 4.22303 6.4433 8.3183C2.34803 12.4136 0.0328138 17.9585 0 23.75L0 105C0.207152 111.007 2.32492 116.792 6.04541 121.513C9.76591 126.233 14.8952 129.645 20.6875 131.25C96.5 148.938 91.875 148.125 95.25 148.125C99.2397 148.251 103.142 146.943 106.25 144.438C108.331 142.673 109.978 140.453 111.062 137.949C112.146 135.445 112.638 132.725 112.5 130V69.4375C112.501 63.6229 110.603 57.9671 107.094 53.3304C103.585 48.6936 98.6584 45.3296 93.0625 43.75L25.375 25C24.1732 24.6768 23.1491 23.8894 22.5279 22.811C21.9067 21.7327 21.7393 20.4518 22.0625 19.25C22.3857 18.0482 23.1731 17.0241 24.2515 16.4029C25.3298 15.7817 26.6107 15.6143 27.8125 15.9375C51.125 22.1875 49.8125 22.1875 50.125 22.1875H128.125C129.368 22.1875 130.56 22.6814 131.44 23.5604C132.319 24.4395 132.812 25.6318 132.812 26.875C132.812 28.1182 132.319 29.3105 131.44 30.1896C130.56 31.0686 129.368 31.5625 128.125 31.5625H95.375C95.002 31.5748 94.6456 31.7201 94.3705 31.9724C94.0954 32.2246 93.9196 32.5669 93.875 32.9375C93.815 33.3164 93.8964 33.7042 94.1039 34.027C94.3114 34.3497 94.6303 34.5848 95 34.6875C102.36 36.5732 108.927 40.7546 113.75 46.625C113.902 46.8076 114.093 46.9532 114.31 47.0506C114.527 47.1481 114.763 47.1949 115 47.1875H128.125C129.368 47.1875 130.56 47.6814 131.44 48.5604C132.319 49.4395 132.812 50.6318 132.812 51.875C132.812 53.1182 132.319 54.3105 131.44 55.1896C130.56 56.0686 129.368 56.5625 128.125 56.5625H121.875C121.626 56.5643 121.381 56.6281 121.163 56.7481C120.945 56.8682 120.76 57.0406 120.625 57.25C120.52 57.464 120.466 57.6992 120.466 57.9375C120.466 58.1758 120.52 58.411 120.625 58.625C121.772 62.115 122.363 65.7638 122.375 69.4375V112.812C122.375 113.227 122.54 113.624 122.833 113.917C123.126 114.21 123.523 114.375 123.937 114.375H128.625C134.34 114.244 139.776 111.882 143.771 107.794C147.766 103.706 150.001 98.216 150 92.5V23.75ZM96.875 95.625C96.875 98.0973 96.1419 100.514 94.7684 102.57C93.3949 104.625 91.4426 106.227 89.1585 107.173C86.8745 108.12 84.3611 108.367 81.9364 107.885C79.5116 107.403 77.2843 106.212 75.5362 104.464C73.788 102.716 72.5975 100.488 72.1152 98.0636C71.6329 95.6389 71.8804 93.1255 72.8265 90.8415C73.7726 88.5574 75.3748 86.6051 77.4304 85.2316C79.486 83.8581 81.9027 83.125 84.375 83.125C87.6902 83.125 90.8696 84.442 93.2138 86.7862C95.558 89.1304 96.875 92.3098 96.875 95.625Z" fill="#099235"/>
</svg>
