<svg width="40" height="40" viewBox="0 0 40 40" fill="none" xmlns="http://www.w3.org/2000/svg">
<mask id="mask0_145_1028" style="mask-type:luminance" maskUnits="userSpaceOnUse" x="3" y="6" width="34" height="28">
<path d="M23.3334 6.66663H16.6667C10.3817 6.66663 7.23836 6.66663 5.2867 8.61996C3.88003 10.025 3.4867 12.0483 3.3767 15.4166H36.6234C36.5134 12.0483 36.12 10.025 34.7134 8.61996C32.7617 6.66663 29.6184 6.66663 23.3334 6.66663ZM16.6667 33.3333H23.3334C29.6184 33.3333 32.7617 33.3333 34.7134 31.38C36.665 29.4266 36.6667 26.285 36.6667 20C36.6667 19.2644 36.6656 18.57 36.6634 17.9166H3.3367C3.33336 18.57 3.33225 19.2644 3.33336 20C3.33336 26.285 3.33336 29.4283 5.2867 31.38C7.24003 33.3316 10.3817 33.3333 16.6667 33.3333Z" fill="white"/>
<path fill-rule="evenodd" clip-rule="evenodd" d="M8.75 26.6666C8.75 26.3351 8.8817 26.0172 9.11612 25.7827C9.35054 25.5483 9.66848 25.4166 10 25.4166H16.6667C16.9982 25.4166 17.3161 25.5483 17.5505 25.7827C17.785 26.0172 17.9167 26.3351 17.9167 26.6666C17.9167 26.9981 17.785 27.3161 17.5505 27.5505C17.3161 27.7849 16.9982 27.9166 16.6667 27.9166H10C9.66848 27.9166 9.35054 27.7849 9.11612 27.5505C8.8817 27.3161 8.75 26.9981 8.75 26.6666ZM19.5833 26.6666C19.5833 26.3351 19.715 26.0172 19.9495 25.7827C20.1839 25.5483 20.5018 25.4166 20.8333 25.4166H23.3333C23.6649 25.4166 23.9828 25.5483 24.2172 25.7827C24.4516 26.0172 24.5833 26.3351 24.5833 26.6666C24.5833 26.9981 24.4516 27.3161 24.2172 27.5505C23.9828 27.7849 23.6649 27.9166 23.3333 27.9166H20.8333C20.5018 27.9166 20.1839 27.7849 19.9495 27.5505C19.715 27.3161 19.5833 26.9981 19.5833 26.6666Z" fill="black"/>
</mask>
<g mask="url(#mask0_145_1028)">
<path d="M0 0H40V40H0V0Z" fill="#024E1A"/>
</g>
</svg>
